<svg viewBox="0 0 800 800" xmlns="http://www.w3.org/2000/svg"><path d="M582.1198112981424,349.57708889801813 L591.9476104391249,77.88136869651464 M551.6504754400637,366.3971800868011 L559.5872458006218,93.15990259445027 M582.1198112981424,349.57708889801813 L551.6504754400637,366.3971800868011 M591.9476104391249,77.88136869651464 L559.5872458006218,93.15990259445027 M741.7696891798921,430.3526584929619 L762.8468694299333,151.41854837028131 M741.7696891798921,430.3526584929619 L582.1198112981424,349.57708889801813 M762.8468694299333,151.41854837028131 L591.9476104391249,77.88136869651464 M598.7815415094583,93.31215067466366 L590.2001173433384,320.16615209107977 M590.2001173433384,320.16615209107977 L736.8250986911573,393.0078651431508 M736.8250986911573,393.0078651431508 L753.9524009507986,160.61048736892164 M598.7815415094583,93.31215067466366 L753.9524009507986,160.61048736892164 M551.6504754400637,366.3971800868011 L711.4734483187426,448.68494011391914 M559.5872458006218,93.15990259445027 L730.6965293318212,168.166135120864 M711.4734483187426,448.68494011391914 L730.6965293318212,168.166135120864 M559.5066618031301,336.88029845997914 L566.5121530604613,108.72875470389073 M721.8723891303569,177.36756213674107 L566.5121530604613,108.72875470389073 M721.8723891303569,177.36756213674107 L706.2928896368392,411.09659616081046 M706.2928896368392,411.09659616081046 L559.5066618031301,336.88029845997914 M711.4734483187426,448.68494011391914 L741.7696891798921,430.3526584929619 M730.6965293318212,168.166135120864 L762.8468694299333,151.41854837028131 M645.7414965814398,289.92104850865405 L590.2001173433384,320.16615209107977 M657.0938745178173,65.45360760276316 L598.7815415094583,93.31215067466366 M645.7414965814398,289.92104850865405 L657.0938745178173,65.45360760276316 M736.8250986911573,393.0078651431508 L792.0174127273351,360.3093165033687 M792.0174127273351,360.3093165033687 L645.7414965814398,289.92104850865405 M792.0174127273351,360.3093165033687 L811.8556996307648,130.36455383515346 M753.9524009507986,160.61048736892164 L811.8556996307648,130.36455383515346 M811.8556996307648,130.36455383515346 L657.0938745178173,65.45360760276316 M559.5066618031301,336.88029845997914 L375.13709846906386,437.2788952715635 M372.00463185668474,201.65414248570502 L375.13709846906386,437.2788952715635 M566.5121530604613,108.72875470389073 L372.00463185668474,201.65414248570502 M527.9463035751085,278.6653401197641 L721.8723891303569,177.36756213674107 M372.00463185668474,201.65414248570502 L527.9463035751085,278.6653401197641 M522.4161458764274,520.033913875619 L706.2928896368392,411.09659616081046 M522.4161458764274,520.033913875619 L527.9463035751085,278.6653401197641 M375.13709846906386,437.2788952715635 L522.4161458764274,520.033913875619 M529.0929744409441,559.0435230356353 L536.2765524112135,269.44237106697545 M529.0929744409441,559.0435230356353 L368.740573135367,467.369556065934 M536.2765524112135,269.44237106697545 L364.5213050755319,185.25780139732575 M368.740573135367,467.369556065934 L364.5213050755319,185.25780139732575 M494.59081339399705,579.9208106088058 L499.3265199737193,288.6901884087307 M494.59081339399705,579.9208106088058 L529.0929744409441,559.0435230356353 M499.3265199737193,288.6901884087307 L536.2765524112135,269.44237106697545 M368.740573135367,467.369556065934 L334.2368227118841,486.41677886006386 M334.2368227118841,486.41677886006386 L494.59081339399705,579.9208106088058 M334.2368227118841,486.41677886006386 L327.5691808914641,202.7042760663803 M364.5213050755319,185.25780139732575 L327.5691808914641,202.7042760663803 M327.5691808914641,202.7042760663803 L499.3265199737193,288.6901884087307 M340.33602492607093,456.2298483902318 L335.16022797384045,219.2564464851281 M491.10344506955414,297.91029981907343 L335.16022797384045,219.2564464851281 M491.10344506955414,297.91029981907343 L487.6163019993072,540.6509944880927 M487.6163019993072,540.6509944880927 L340.33602492607093,456.2298483902318 M340.33602492607093,456.2298483902318 L130.41952360187702,570.5400512210481 M112.03885329254445,325.85201737284325 L130.41952360187702,570.5400512210481 M335.16022797384045,219.2564464851281 L112.03885329254445,325.85201737284325 M267.24817952377214,414.8416601601092 L491.10344506955414,297.91029981907343 M112.03885329254445,325.85201737284325 L267.24817952377214,414.8416601601092 M277.0857803645737,665.3792763521153 L487.6163019993072,540.6509944880927 M277.0857803645737,665.3792763521153 L267.24817952377214,414.8416601601092 M130.41952360187702,570.5400512210481 L277.0857803645737,665.3792763521153 M285.9595609803727,706.1637623898034 L274.72842399205416,405.68665205390005 M285.9595609803727,706.1637623898034 L126.26039638972765,601.2267134168874 M274.72842399205416,405.68665205390005 L103.78225880288392,308.36242031908466 M126.26039638972765,601.2267134168874 L103.78225880288392,308.36242031908466 M246.31071218999935,730.1553151802343 L231.81777353036156,428.0394433132784 M246.31071218999935,730.1553151802343 L285.9595609803727,706.1637623898034 M231.81777353036156,428.0394433132784 L274.72842399205416,405.68665205390005 M126.26039638972765,601.2267134168874 L86.86445949589512,622.974586560834 M86.86445949589512,622.974586560834 L246.31071218999935,730.1553151802343 M86.86445949589512,622.974586560834 L61.186895896416445,328.47327825691536 M103.78225880288392,308.36242031908466 L61.186895896416445,328.47327825691536 M61.186895896416445,328.47327825691536 L231.81777353036156,428.0394433132784 M90.62748021571554,592.2088410581075 L69.57273257818804,346.1400798115018 M224.49729904484542,437.1726899797118 L69.57273257818804,346.1400798115018 M224.49729904484542,437.1726899797118 L237.05672554774725,689.0943899288816 M237.05672554774725,689.0943899288816 L90.62748021571554,592.2088410581075 M90.62748021571554,592.2088410581075 L14.469672751082214,633.6806375272549 M14.469672751082214,633.6806375272549 L-11.855699630764889,385.0422702905774 M69.57273257818804,346.1400798115018 L-11.855699630764889,385.0422702905774 M142.39249081833043,480.0603428256654 L224.49729904484542,437.1726899797118 M-11.855699630764889,385.0422702905774 L142.39249081833043,480.0603428256654 M160.3376876038264,734.5463923972368 L237.05672554774725,689.0943899288816 M160.3376876038264,734.5463923972368 L142.39249081833043,480.0603428256654 M14.469672751082214,633.6806375272549 L160.3376876038264,734.5463923972368" stroke="black"  stroke-width="4"  fill="red"/></svg>